solid OpenSCAD_Model
  facet normal 0 0 1
    outer loop
      vertex 30 0 8
      vertex 30 30 8
      vertex 18.75 30 8
    endloop
  endfacet
  facet normal 0 0 -1
    outer loop
      vertex 80 0 0
      vertex 30 0 0
      vertex 30 30 0
    endloop
  endfacet
  facet normal 0 1 0
    outer loop
      vertex 80 30 0
      vertex 30 30 0
      vertex 30 30 8
    endloop
  endfacet
  facet normal 0 -1 0
    outer loop
      vertex 80 0 0
      vertex 80 0 8
      vertex 30 0 0
    endloop
  endfacet
  facet normal 1 0 0
    outer loop
      vertex 80 0 0
      vertex 80 30 0
      vertex 80 0 8
    endloop
  endfacet
  facet normal 0 0 -1
    outer loop
      vertex 80 0 0
      vertex 30 30 0
      vertex 80 30 0
    endloop
  endfacet
  facet normal 0 -1 0
    outer loop
      vertex 80 0 8
      vertex 30 0 8
      vertex 30 0 0
    endloop
  endfacet
  facet normal 0 0 1
    outer loop
      vertex 80 0 8
      vertex 30 30 8
      vertex 30 0 8
    endloop
  endfacet
  facet normal 0 1 0
    outer loop
      vertex 80 30 0
      vertex 30 30 8
      vertex 80 30 8
    endloop
  endfacet
  facet normal 1 0 0
    outer loop
      vertex 80 0 8
      vertex 80 30 0
      vertex 80 30 8
    endloop
  endfacet
  facet normal 0 0 1
    outer loop
      vertex 80 0 8
      vertex 80 30 8
      vertex 30 30 8
    endloop
  endfacet
  facet normal 0 0 -1
    outer loop
      vertex 0 0 0
      vertex 30 30 0
      vertex 30 0 0
    endloop
  endfacet
  facet normal 0 -1 0
    outer loop
      vertex 0 0 0
      vertex 30 0 0
      vertex 30 0 8
    endloop
  endfacet
  facet normal 0 0 -1
    outer loop
      vertex 0 0 0
      vertex 30 80 0
      vertex 30 30 0
    endloop
  endfacet
  facet normal 0 -1 0
    outer loop
      vertex 0 0 0
      vertex 30 0 8
      vertex 0 0 8
    endloop
  endfacet
  facet normal 0 0 1
    outer loop
      vertex 0 0 8
      vertex 30 0 8
      vertex 18.75 30 8
    endloop
  endfacet
  facet normal -1 0 0
    outer loop
      vertex 0 0 0
      vertex 0 0 8
      vertex 0 80 8
    endloop
  endfacet
  facet normal 0 0 1
    outer loop
      vertex 0 0 8
      vertex 18.75 30 8
      vertex 0 80 8
    endloop
  endfacet
  facet normal 0 0 -1
    outer loop
      vertex 0 0 0
      vertex 0 80 0
      vertex 30 80 0
    endloop
  endfacet
  facet normal -1 0 0
    outer loop
      vertex 0 0 0
      vertex 0 80 8
      vertex 0 80 0
    endloop
  endfacet
  facet normal 0 1 0
    outer loop
      vertex 0 80 0
      vertex 0 80 8
      vertex 30 80 0
    endloop
  endfacet
  facet normal 1 0 0
    outer loop
      vertex 30 80 0
      vertex 30 30 8
      vertex 30 30 0
    endloop
  endfacet
  facet normal 0 0 1
    outer loop
      vertex 0 80 8
      vertex 18.75 30 8
      vertex 30 80 8
    endloop
  endfacet
  facet normal 0 0 1
    outer loop
      vertex 30 80 8
      vertex 18.75 30 8
      vertex 30 30 8
    endloop
  endfacet
  facet normal 0 1 0
    outer loop
      vertex 0 80 8
      vertex 30 80 8
      vertex 30 80 0
    endloop
  endfacet
  facet normal 1 0 0
    outer loop
      vertex 30 80 0
      vertex 30 80 8
      vertex 30 30 8
    endloop
  endfacet
endsolid OpenSCAD_Model
